# Blender v3.4.0 OBJ File: 'portal.blend'
# www.blender.org
v 5.000000 6.000000 5.000000
v 5.000000 6.000000 3.000000
v 5.000000 4.000000 5.000000
v 5.000000 4.000000 3.000000
v 5.000000 4.000000 1.000000
v 5.000000 4.000000 -1.000000
v 5.000000 2.000000 1.000000
v 5.000000 2.000000 -1.000000
v 5.000000 6.000000 1.000000
v 5.000000 6.000000 -1.000000
v 5.000000 4.000000 1.000000
v 5.000000 4.000000 -1.000000
v 5.000000 6.000000 -1.000000
v 5.000000 6.000000 -3.000000
v 5.000000 4.000000 -1.000000
v 5.000000 4.000000 -3.000000
v 3.000000 4.000000 5.000000
v 3.000000 6.000000 5.000000
v 5.000000 4.000000 5.000000
v 5.000000 6.000000 5.000000
v 5.000000 4.000000 5.000000
v 5.000000 4.000000 3.000000
v 5.000000 2.000000 5.000000
v 5.000000 2.000000 3.000000
v 3.000000 2.000000 5.000000
v 3.000000 4.000000 5.000000
v 5.000000 2.000000 5.000000
v 5.000000 4.000000 5.000000
v 5.000000 4.000000 3.000000
v 5.000000 4.000000 1.000000
v 5.000000 2.000000 3.000000
v 5.000000 2.000000 1.000000
v 5.000000 0.000000 3.000000
v 5.000000 0.000000 1.000000
v 5.000000 -2.000000 3.000000
v 5.000000 -2.000000 1.000000
v 5.000000 2.000000 3.000000
v 5.000000 2.000000 1.000000
v 5.000000 0.000000 3.000000
v 5.000000 0.000000 1.000000
v 3.000000 -1.999999 3.000000
v 3.000000 0.000001 3.000000
v 5.000000 -1.999999 3.000000
v 5.000000 0.000001 3.000000
v 3.000000 0.000001 5.000000
v 3.000000 2.000000 5.000000
v 5.000000 0.000000 5.000000
v 5.000000 2.000000 5.000000
v 5.000000 2.000000 5.000000
v 5.000000 2.000000 3.000000
v 5.000000 0.000000 5.000000
v 5.000000 0.000000 3.000000
v 3.000000 0.000001 5.000000
v 3.000000 0.000001 3.000000
v 5.000000 0.000001 5.000000
v 5.000000 0.000001 3.000000
v 5.000000 6.000000 3.000000
v 5.000000 6.000000 1.000000
v 5.000000 4.000000 3.000000
v 5.000000 4.000000 1.000000
v 1.000261 0.000001 0.999237
v 1.000261 0.000001 -0.999238
v 3.000261 0.000001 -0.999237
v 3.000261 0.000001 0.999238
v 1.515083 0.000001 -0.999238
v 1.515083 0.000001 0.999237
v 2.484398 0.000001 -0.999237
v 2.484397 0.000001 0.999238
vt 0.000000 1.000000
vt 1.000000 0.000000
vt 0.000000 0.000000
vt 0.000000 1.000000
vt 1.000000 0.000000
vt 0.000000 0.000000
vt 0.000000 1.000000
vt 1.000000 0.000000
vt 0.000000 0.000000
vt 0.000000 1.000000
vt 1.000000 0.000000
vt 0.000000 0.000000
vt 0.000000 0.000000
vt 1.000000 1.000000
vt 1.000000 0.000000
vt 0.000000 1.000000
vt 1.000000 0.000000
vt 0.000000 0.000000
vt 0.000000 1.000000
vt 1.000000 0.000000
vt 0.000000 0.000000
vt 0.000000 1.000000
vt 1.000000 0.000000
vt 0.000000 0.000000
vt 0.000000 1.000000
vt 1.000000 0.000000
vt 0.000000 0.000000
vt 0.000000 1.000000
vt 1.000000 0.000000
vt 0.000000 0.000000
vt 0.000000 1.000000
vt 1.000000 0.000000
vt 0.000000 0.000000
vt 0.000000 1.000000
vt 1.000000 0.000000
vt 0.000000 0.000000
vt 0.000000 1.000000
vt 1.000000 0.000000
vt 0.000000 0.000000
vt 1.000000 0.000000
vt 0.000000 1.000000
vt 0.000000 0.000000
vt 0.000000 1.000000
vt 1.000000 0.000000
vt 0.000000 0.000000
vt 0.000000 0.000000
vt 0.257411 1.000000
vt 0.000000 1.000000
vt 1.000000 0.000000
vt 0.742069 0.999999
vt 0.742068 0.000000
vt 1.000000 1.000000
vt 1.000000 1.000000
vt 1.000000 1.000000
vt 1.000000 1.000000
vt 0.000000 1.000000
vt 1.000000 1.000000
vt 1.000000 1.000000
vt 1.000000 1.000000
vt 1.000000 1.000000
vt 1.000000 1.000000
vt 1.000000 1.000000
vt 1.000000 1.000000
vt 1.000000 1.000000
vt 1.000000 1.000000
vt 1.000000 1.000000
vt 0.257411 0.000000
vt 1.000000 0.999999
vn -1.0000 0.0000 0.0000
vn 0.0000 0.0000 -1.0000
vn 0.0000 1.0000 0.0000
s off
f 4/1/1 1/2/1 2/3/1
f 8/4/1 5/5/1 6/6/1
f 12/7/1 9/8/1 10/9/1
f 16/10/1 13/11/1 14/12/1
f 18/13/2 19/14/2 17/15/2
f 24/16/1 21/17/1 22/18/1
f 28/19/2 25/20/2 26/21/2
f 32/22/1 29/23/1 30/24/1
f 36/25/1 33/26/1 34/27/1
f 40/28/1 37/29/1 38/30/1
f 44/31/2 41/32/2 42/33/2
f 48/34/2 45/35/2 46/36/2
f 52/37/1 49/38/1 50/39/1
f 53/40/3 56/41/3 54/42/3
f 60/43/1 57/44/1 58/45/1
f 61/46/3 65/47/3 62/48/3
f 64/49/3 67/50/3 68/51/3
f 4/1/1 3/52/1 1/2/1
f 8/4/1 7/53/1 5/5/1
f 12/7/1 11/54/1 9/8/1
f 16/10/1 15/55/1 13/11/1
f 18/13/2 20/56/2 19/14/2
f 24/16/1 23/57/1 21/17/1
f 28/19/2 27/58/2 25/20/2
f 32/22/1 31/59/1 29/23/1
f 36/25/1 35/60/1 33/26/1
f 40/28/1 39/61/1 37/29/1
f 44/31/2 43/62/2 41/32/2
f 48/34/2 47/63/2 45/35/2
f 52/37/1 51/64/1 49/38/1
f 53/40/3 55/65/3 56/41/3
f 60/43/1 59/66/1 57/44/1
f 61/46/3 66/67/3 65/47/3
f 64/49/3 63/68/3 67/50/3
